<svg width="128" height="128" viewBox="0 0 128 128" fill="none" xmlns="http://www.w3.org/2000/svg">
<path fill-rule="evenodd" clip-rule="evenodd" d="M64 128C99.3462 128 128 99.3462 128 64C128 28.6538 99.3462 0 64 0C28.6538 0 0 28.6538 0 64C0 99.3462 28.6538 128 64 128ZM108.346 82.3688C110.758 76.5452 112 70.3035 112 64H108.16C108.16 69.7992 107.018 75.5416 104.799 80.8993C102.579 86.257 99.3265 91.1252 95.2258 95.2258C91.1252 99.3265 86.257 102.579 80.8993 104.799C75.5416 107.018 69.7992 108.16 64 108.16C58.2008 108.16 52.4584 107.018 47.1007 104.799C41.743 102.579 36.8748 99.3265 32.7742 95.2258C28.6735 91.1252 25.4207 86.257 23.2015 80.8993C20.9822 75.5416 19.84 69.7992 19.84 64H16C16 70.3034 17.2416 76.5452 19.6538 82.3688C22.066 88.1924 25.6017 93.4839 30.0589 97.9411C34.5161 102.398 39.8076 105.934 45.6312 108.346C51.4548 110.758 57.6965 112 64 112C70.3035 112 76.5452 110.758 82.3688 108.346C88.1924 105.934 93.4839 102.398 97.9411 97.9411C102.398 93.4839 105.934 88.1924 108.346 82.3688ZM49.28 40.96C49.28 51.5639 46.4146 60.16 42.88 60.16C39.3454 60.16 36.48 51.5639 36.48 40.96C36.48 30.3561 39.3454 21.76 42.88 21.76C46.4146 21.76 49.28 30.3561 49.28 40.96ZM85.12 60.16C88.6546 60.16 91.52 51.5639 91.52 40.96C91.52 30.3561 88.6546 21.76 85.12 21.76C81.5854 21.76 78.72 30.3561 78.72 40.96C78.72 51.5639 81.5854 60.16 85.12 60.16Z" fill="#ffffff"/>
</svg>
